<?xml version="1.0" standalone="no"?><!DOCTYPE svg PUBLIC "-//W3C//DTD SVG 1.1//EN" "http://www.w3.org/Graphics/SVG/1.1/DTD/svg11.dtd"><svg t="1629968519117" class="icon" viewBox="0 0 1024 1024" version="1.1" xmlns="http://www.w3.org/2000/svg" p-id="1478" width="128" height="128" xmlns:xlink="http://www.w3.org/1999/xlink"><defs><style type="text/css"></style></defs><path d="M619.5 124c11.9 0 21.5 9.7 21.5 21.5v701c0 11.9-9.7 21.5-21.5 21.5h-449c-11.9 0-21.5-9.7-21.5-21.5v-701c0-11.9 9.7-21.5 21.5-21.5h449m0-60h-449c-45 0-81.5 36.5-81.5 81.5v701c0 45 36.5 81.5 81.5 81.5h449c45 0 81.5-36.5 81.5-81.5v-701c0-45-36.5-81.5-81.5-81.5z" fill="#2C2C2C" p-id="1479"></path><path d="M832.7 455c25.8 0 42.3 14.1 42.3 21.5v370c0 7.4-16.5 21.5-42.3 21.5H699.4c1.2-7 1.9-14.2 1.9-21.5V455h131.4m0-60H641.3v451.5c0 45-45.8 81.5-102.3 81.5h293.7c56.5 0 102.3-36.5 102.3-81.5v-370c0-45-45.8-81.5-102.3-81.5zM516 418H274c-16.6 0-30-13.4-30-30s13.4-30 30-30h242c16.6 0 30 13.4 30 30s-13.4 30-30 30z" fill="#2C2C2C" p-id="1480"></path><path d="M395 539c-16.6 0-30-13.4-30-30V267c0-16.6 13.4-30 30-30s30 13.4 30 30v242c0 16.6-13.4 30-30 30z" fill="#2C2C2C" p-id="1481"></path></svg>